<?xml version="1.0" encoding="UTF-8" standalone="no"?>
<svg
   fill="none"
   height="25"
   viewBox="0 0 25 21.875"
   focusable="false"
   aria-hidden="true"
   version="1.1"
   id="svg1"
   sodipodi:docname="jira.svg"
   width="25"
   inkscape:version="1.4 (1:1.4+202410161351+e7c3feb100)"
   xmlns:inkscape="http://www.inkscape.org/namespaces/inkscape"
   xmlns:sodipodi="http://sodipodi.sourceforge.net/DTD/sodipodi-0.dtd"
   xmlns="http://www.w3.org/2000/svg"
   xmlns:svg="http://www.w3.org/2000/svg">
  <defs
     id="defs1" />
  <sodipodi:namedview
     id="namedview1"
     pagecolor="#ffffff"
     bordercolor="#999999"
     borderopacity="1"
     inkscape:showpageshadow="0"
     inkscape:pageopacity="0"
     inkscape:pagecheckerboard="0"
     inkscape:deskcolor="#d1d1d1"
     inkscape:zoom="11.313708"
     inkscape:cx="-6.5407377"
     inkscape:cy="27.444582"
     inkscape:window-width="1850"
     inkscape:window-height="1016"
     inkscape:window-x="70"
     inkscape:window-y="27"
     inkscape:window-maximized="1"
     inkscape:current-layer="svg1" />
  <path
     fill="#357de8"
     d="m 8.0795,15.4035 h -2.219 c -3.347,0 -5.748,-2.05 -5.748,-5.052 h 11.933 c 0.618,0 1.018,0.44 1.018,1.062 v 12.007 c -2.983,0 -4.984,-2.416 -4.984,-5.784 z m 5.894,-5.967 h -2.22 c -3.346,0 -5.747,-2.013 -5.747,-5.015 h 11.932 c 0.618,0 1.055,0.402 1.055,1.025 v 12.007 c -2.983,0 -5.02,-2.416 -5.02,-5.784 z m 5.93,-5.93 h -2.22 c -3.347,0 -5.748,-2.05 -5.748,-5.052 h 11.933 c 0.618,0 1.019,0.439 1.019,1.025 v 12.007 c -2.983,0 -4.984,-2.416 -4.984,-5.784 z"
     id="path1" />
</svg>
